<svg viewBox="0 0 24 24" fill="none" xmlns="http://www.w3.org/2000/svg">
<path d="M10.2684 21C10.4439 21.3041 10.6964 21.5565 11.0004 21.732C11.3044 21.9076 11.6493 22 12.0004 22C12.3514 22 12.6963 21.9076 13.0003 21.732C13.3043 21.5565 13.5568 21.3041 13.7324 21M15.0004 8.00005H21.0004M18.0004 5.00005V11M20.0024 14.464C20.2299 14.767 20.4764 15.0552 20.7404 15.327C20.8708 15.4704 20.9567 15.6485 20.9878 15.8398C21.0188 16.0311 20.9936 16.2273 20.9152 16.4046C20.8369 16.5818 20.7086 16.7324 20.5462 16.8382C20.3838 16.9439 20.1942 17.0001 20.0004 17H4.00036C3.80656 17.0001 3.61692 16.9439 3.45449 16.8382C3.29207 16.7324 3.16386 16.5818 3.08547 16.4046C3.00707 16.2273 2.98187 16.0311 3.01292 15.8398C3.04397 15.6485 3.12993 15.4704 3.26036 15.327C4.59036 13.956 6.00036 12.499 6.00036 8.00005C6.00048 6.97103 6.26524 5.95933 6.76921 5.06217C7.27319 4.16502 7.99943 3.41255 8.87815 2.87708C9.75687 2.34161 10.7585 2.04114 11.7869 2.00453C12.8153 1.96792 13.8358 2.19642 14.7504 2.66805" stroke="currentColor" stroke-width="1.5" stroke-linecap="round" stroke-linejoin="round"/>
</svg>




