<svg viewBox="0 0 24 24" fill="none" xmlns="http://www.w3.org/2000/svg">
<path fill-rule="evenodd" clip-rule="evenodd" d="M18.1526 3.09368C17.9874 3.01249 17.8023 2.98313 17.6207 3.0093C17.4392 3.03546 17.2693 3.11598 17.1325 3.2407C17.0402 3.32607 16.953 3.41618 16.8707 3.51104C16.7305 3.66944 16.5458 3.89709 16.3676 4.18261C16.0213 4.7356 15.6342 5.60542 15.7753 6.627C15.9155 7.64858 16.5217 8.37611 17.0044 8.80959C17.1389 8.93195 17.2717 9.03724 17.3924 9.12545C17.099 9.96966 17.2132 10.7958 17.3692 11.3669C17.4063 11.4997 17.445 11.6226 17.4852 11.7358C16.7547 12.2556 16.3778 13.0107 16.1828 13.576C16.1117 13.7798 16.0544 13.9883 16.0111 14.2002C15.2082 14.3187 14.5742 14.7446 14.1593 15.1089C13.8548 15.3744 13.5522 15.6875 13.3377 16.0375C12.8235 16.8788 12.7669 17.9308 13.0342 18.8224C13.3053 19.7254 13.9532 20.5962 14.9919 20.95C15.217 21.0278 15.4627 21.0144 15.6784 20.9127C15.8942 20.8109 16.0635 20.6284 16.1516 20.4029C16.2396 20.1774 16.2397 19.9259 16.1517 19.7004C16.0638 19.4748 15.8945 19.2923 15.6788 19.1904L15.5786 19.1496C15.2889 19.051 15.0467 18.8205 14.8954 18.4932C15.3224 18.7304 15.845 18.9106 16.4455 18.9106C17.4555 18.9106 18.2445 18.3984 18.7318 17.9716C19.0358 17.7043 19.3067 17.4001 19.5385 17.0657C19.6402 16.9095 19.6943 16.7261 19.694 16.5385C19.6936 16.3509 19.6389 16.1677 19.5366 16.0119L19.4939 15.9483C19.6715 15.8863 19.8479 15.8041 20.023 15.7017C20.8984 15.1857 21.3309 14.3386 21.5444 13.7192C21.6317 13.4641 21.6902 13.2279 21.7273 13.0363L21.7709 12.7859L21.7932 12.6019L21.7997 12.5231C21.8113 12.3363 21.7686 12.1502 21.677 11.9882C21.5853 11.8261 21.4487 11.6954 21.2845 11.6125L21.2409 11.5907C21.4191 11.3811 21.5797 11.1383 21.7087 10.8565C22.1357 9.92128 22.0141 8.97464 21.8415 8.34196C21.7378 7.94616 21.5823 7.56648 21.3792 7.21319C21.2831 7.05363 21.1434 6.92635 20.9772 6.84711C20.8111 6.76787 20.6259 6.74015 20.4445 6.76738L20.3786 6.77971C20.4083 6.52361 20.4101 6.25043 20.3711 5.96681C20.231 4.94523 19.6239 4.21865 19.1421 3.78422C18.8442 3.50956 18.5114 3.27728 18.1526 3.09368ZM18.2222 7.37824C17.9066 7.09083 17.6662 6.74651 17.6133 6.3633C17.5613 5.98009 17.6987 5.58076 17.9243 5.21557C18.2399 5.50297 18.4803 5.84824 18.5332 6.23051C18.5852 6.61372 18.4478 7.01305 18.2222 7.37824ZM20.0564 8.86555C19.6731 9.04578 19.3445 9.30378 19.1839 9.65379C19.0242 10.0048 19.0419 10.4278 19.1533 10.8442C19.5376 10.664 19.8662 10.406 20.0258 10.055C20.1855 9.70407 20.1688 9.28101 20.0564 8.86555ZM19.7882 13.1017C19.3733 13.0249 18.9593 13.0439 18.6316 13.2374C18.3039 13.4309 18.0802 13.7875 17.9382 14.1935C18.354 14.2713 18.768 14.2523 19.0957 14.0588C19.4234 13.8653 19.6462 13.5087 19.7882 13.1017ZM17.514 16.5402C17.1919 16.2604 16.8243 16.0659 16.4455 16.0659C16.0668 16.0659 15.6992 16.2604 15.3771 16.5402C15.6992 16.8191 16.0668 17.0145 16.4446 17.0145C16.8243 17.0145 17.1919 16.8191 17.514 16.5402ZM6.8474 3.09368C7.01264 3.01249 7.19771 2.98313 7.37927 3.0093C7.56082 3.03546 7.73073 3.11598 7.86755 3.2407C7.95914 3.32607 8.04639 3.41618 8.12932 3.51104C8.26948 3.66944 8.45421 3.89709 8.63243 4.18261C8.97867 4.7356 9.36575 5.60542 9.22466 6.627C9.08449 7.64858 8.47834 8.37611 7.99565 8.80959C7.87191 8.92187 7.74239 9.02731 7.60764 9.12545C7.90097 9.96966 7.78679 10.7958 7.63085 11.3669C7.59372 11.4997 7.55504 11.6226 7.51481 11.7358C8.24442 12.2556 8.62222 13.0107 8.81715 13.576C8.89605 13.8065 8.95082 14.0199 8.98888 14.2002C9.79182 14.3187 10.4258 14.7446 10.8407 15.1089C11.1452 15.3744 11.4478 15.6875 11.6623 16.0375C12.1765 16.8788 12.2331 17.9308 11.9658 18.8224C11.6947 19.7254 11.0468 20.5962 10.0081 20.95C9.78302 21.0278 9.5373 21.0144 9.32156 20.9127C9.10582 20.8109 8.93649 20.6284 8.84844 20.4029C8.7604 20.1774 8.76035 19.9259 8.8483 19.7004C8.93624 19.4748 9.1055 19.2923 9.32119 19.1904L9.42145 19.1496C9.71106 19.051 9.95334 18.8205 10.1046 18.4932C9.67764 18.7304 9.15504 18.9106 8.55446 18.9106C7.54452 18.9106 6.75643 18.3984 6.26817 17.9716C6.05888 17.7875 5.86483 17.586 5.68801 17.3692C5.60758 17.272 5.53198 17.1707 5.46152 17.0657C5.35982 16.9095 5.30572 16.7261 5.30605 16.5385C5.30638 16.3509 5.36113 16.1677 5.46337 16.0119L5.50607 15.9483C5.32245 15.8834 5.14528 15.8009 4.97697 15.7017C4.10162 15.1857 3.66906 14.3386 3.45556 13.7192C3.37804 13.4966 3.31691 13.2683 3.27269 13.0363L3.22907 12.7859L3.20679 12.6019C3.17787 12.4031 3.21147 12.2001 3.30272 12.0222C3.39398 11.8442 3.53818 11.7004 3.71454 11.6116L3.7591 11.5907C3.57024 11.3696 3.41275 11.1225 3.29126 10.8565C2.86426 9.92128 2.98586 8.97464 3.15852 8.34196C3.2622 7.94616 3.4177 7.56648 3.62079 7.21319C3.71687 7.05363 3.85663 6.92635 4.02277 6.84711C4.18891 6.76787 4.37414 6.74015 4.55554 6.76738L4.62145 6.77971C4.58933 6.50957 4.59183 6.2363 4.62887 5.96681C4.76904 4.94523 5.37519 4.21865 5.85788 3.78422C6.15579 3.50956 6.48864 3.27728 6.8474 3.09368ZM6.77778 7.37824C7.09339 7.09083 7.3338 6.74651 7.38671 6.3633C7.4387 5.98009 7.30131 5.58076 7.07575 5.21557C6.76014 5.50297 6.51973 5.84824 6.46681 6.23051C6.41483 6.61372 6.55221 7.01305 6.77778 7.37824ZM4.94448 8.86555C5.32785 9.04578 5.65645 9.30378 5.81704 9.65379C5.9767 10.0048 5.95906 10.4278 5.84767 10.8442C5.46337 10.664 5.13477 10.406 4.97511 10.055C4.81545 9.70407 4.83216 9.28101 4.94448 8.86555ZM5.21274 13.1017C5.62767 13.0249 6.04167 13.0439 6.36935 13.2374C6.69702 13.4309 6.92073 13.7875 7.06275 14.1935C6.6469 14.2713 6.2329 14.2523 5.90522 14.0588C5.57755 13.8653 5.35477 13.5087 5.21274 13.1017ZM7.48697 16.5402C7.80907 16.2604 8.17666 16.0659 8.55539 16.0659C8.93411 16.0659 9.3017 16.2604 9.62381 16.5402C9.3017 16.8191 8.93411 17.0145 8.55631 17.0145C8.17666 17.0145 7.80907 16.8191 7.48697 16.5402Z" fill="currentColor" stroke="white" stroke-width="0.5"/>
</svg>

