<svg viewBox="0 0 24 24" fill="none" xmlns="http://www.w3.org/2000/svg">
<path d="M18.0015 2.00146L22.0015 6.00147M2.00146 22.0015L3.27787 17.3213C3.36114 17.016 3.40278 16.8633 3.4667 16.721C3.52345 16.5945 3.59319 16.4744 3.67478 16.3624C3.76668 16.2363 3.87858 16.1244 4.10237 15.9006L14.4358 5.56715C14.6338 5.36914 14.7328 5.27014 14.847 5.23304C14.9474 5.20041 15.0556 5.20041 15.156 5.23304C15.2701 5.27014 15.3691 5.36914 15.5672 5.56715L18.4358 8.43578C18.6338 8.63379 18.7328 8.73279 18.7699 8.84696C18.8025 8.94738 18.8025 9.05555 18.7699 9.15597C18.7328 9.27014 18.6338 9.36914 18.4358 9.56715L8.10237 19.9006C7.87858 20.1244 7.76668 20.2363 7.64055 20.3282C7.52856 20.4097 7.40839 20.4795 7.28198 20.5362C7.13961 20.6002 6.98694 20.6418 6.6816 20.7251L2.00146 22.0015Z" stroke="currentColor" stroke-width="1.5" stroke-linecap="round" stroke-linejoin="round"/>
</svg>




