<svg viewBox="0 0 22 18" fill="none" xmlns="http://www.w3.org/2000/svg">
<path d="M0.75 3.75L8.91492 9.46544C9.57609 9.92826 9.90668 10.1597 10.2663 10.2493C10.5839 10.3285 10.9161 10.3285 11.2337 10.2493C11.5933 10.1597 11.9239 9.92826 12.5851 9.46544L20.75 3.75M5.55 16.75H15.95C17.6302 16.75 18.4702 16.75 19.112 16.423C19.6765 16.1354 20.1354 15.6765 20.423 15.112C20.75 14.4702 20.75 13.6302 20.75 11.95V5.55C20.75 3.86984 20.75 3.02976 20.423 2.38803C20.1354 1.82354 19.6765 1.3646 19.112 1.07698C18.4702 0.75 17.6302 0.75 15.95 0.75H5.55C3.86984 0.75 3.02976 0.75 2.38803 1.07698C1.82354 1.3646 1.3646 1.82354 1.07698 2.38803C0.75 3.02976 0.75 3.86984 0.75 5.55V11.95C0.75 13.6302 0.75 14.4702 1.07698 15.112C1.3646 15.6765 1.82354 16.1354 2.38803 16.423C3.02976 16.75 3.86984 16.75 5.55 16.75Z" stroke="currentColor" stroke-width="1.5" stroke-linecap="round" stroke-linejoin="round"/>
</svg>




