<svg viewBox="0 0 22 16" fill="none" xmlns="http://www.w3.org/2000/svg">
<path d="M1.01387 8.46318C0.877686 8.24754 0.809592 8.13972 0.771474 7.97342C0.742842 7.8485 0.742842 7.6515 0.771474 7.52658C0.809592 7.36028 0.877686 7.25246 1.01387 7.03682C2.13928 5.25484 5.48915 0.75 10.5942 0.75C15.6992 0.75 19.049 5.25484 20.1744 7.03682C20.3106 7.25246 20.3787 7.36028 20.4168 7.52658C20.4455 7.6515 20.4455 7.8485 20.4168 7.97342C20.3787 8.13972 20.3106 8.24754 20.1744 8.46318C19.049 10.2452 15.6992 14.75 10.5942 14.75C5.48915 14.75 2.13928 10.2452 1.01387 8.46318Z" stroke="currentColor" stroke-width="1.5" stroke-linecap="round" stroke-linejoin="round"/>
<path d="M10.5942 10.75C12.251 10.75 13.5942 9.40685 13.5942 7.75C13.5942 6.09315 12.251 4.75 10.5942 4.75C8.9373 4.75 7.59415 6.09315 7.59415 7.75C7.59415 9.40685 8.9373 10.75 10.5942 10.75Z" stroke="currentColor" stroke-width="1.5" stroke-linecap="round" stroke-linejoin="round"/>
</svg>




