<svg viewBox="0 0 24 24" fill="none" xmlns="http://www.w3.org/2000/svg">
<path d="M14.0029 2.271V6.40154C14.0029 6.96159 14.0029 7.24161 14.1119 7.45553C14.2078 7.64369 14.3608 7.79667 14.5489 7.89254C14.7629 8.00154 15.0429 8.00154 15.6029 8.00154H19.7335M16.0029 13.0015H8.00293M16.0029 17.0015H8.00293M10.0029 9.00146H8.00293M14.0029 2.00146H8.80293C7.12277 2.00146 6.28269 2.00146 5.64096 2.32845C5.07647 2.61607 4.61753 3.07501 4.32991 3.63949C4.00293 4.28123 4.00293 5.12131 4.00293 6.80147V17.2015C4.00293 18.8816 4.00293 19.7217 4.32991 20.3634C4.61753 20.9279 5.07647 21.3869 5.64096 21.6745C6.28269 22.0015 7.12277 22.0015 8.80293 22.0015H15.2029C16.8831 22.0015 17.7232 22.0015 18.3649 21.6745C18.9294 21.3869 19.3883 20.9279 19.6759 20.3634C20.0029 19.7217 20.0029 18.8816 20.0029 17.2015V8.00146L14.0029 2.00146Z" stroke="currentColor" stroke-width="1.5" stroke-linecap="round" stroke-linejoin="round"/>
</svg>




