<svg viewBox="0 0 25 25" fill="none" xmlns="http://www.w3.org/2000/svg">
<path d="M16.6663 7.29167C16.6663 6.32295 16.6663 5.83859 16.5599 5.44119C16.2709 4.36278 15.4286 3.52044 14.3502 3.23148C13.9528 3.125 13.4684 3.125 12.4997 3.125C11.531 3.125 11.0466 3.125 10.6492 3.23148C9.57079 3.52044 8.72845 4.36278 8.43949 5.44119C8.33301 5.83859 8.33301 6.32295 8.33301 7.29167M5.41634 21.875H19.583C20.7498 21.875 21.3332 21.875 21.7788 21.6479C22.1708 21.4482 22.4895 21.1295 22.6893 20.7375C22.9163 20.2918 22.9163 19.7084 22.9163 18.5417V10.625C22.9163 9.45822 22.9163 8.87484 22.6893 8.42919C22.4895 8.03718 22.1708 7.71847 21.7788 7.51874C21.3332 7.29167 20.7498 7.29167 19.583 7.29167H5.41634C4.24957 7.29167 3.66618 7.29167 3.22053 7.51874C2.82852 7.71847 2.50981 8.03718 2.31008 8.42919C2.08301 8.87484 2.08301 9.45822 2.08301 10.625V18.5417C2.08301 19.7084 2.08301 20.2918 2.31008 20.7375C2.50981 21.1295 2.82852 21.4482 3.22053 21.6479C3.66618 21.875 4.24957 21.875 5.41634 21.875Z" stroke="currentColor" stroke-width="1.5" stroke-linecap="round" stroke-linejoin="round"/>
</svg>

