<svg viewBox="0 0 28 20" fill="none" xmlns="http://www.w3.org/2000/svg">
<rect x="0.5" y="0.5" width="27" height="19" rx="3.5" fill="white"/>
<rect x="0.5" y="0.5" width="27" height="19" rx="3.5" stroke="currentColor"/>
<path fill-rule="evenodd" clip-rule="evenodd" d="M8.85333 13.2152H7.15707L5.88509 8.16031C5.82471 7.92779 5.69652 7.72222 5.50796 7.62534C5.03737 7.38186 4.51882 7.18809 3.95312 7.09036V6.89575H6.68566C7.06279 6.89575 7.34564 7.18809 7.39278 7.52761L8.05276 11.1739L9.74819 6.89575H11.3973L8.85333 13.2152ZM12.3401 13.2152H10.7382L12.0573 6.89575H13.6593L12.3401 13.2152ZM15.7314 8.64643C15.7785 8.30606 16.0614 8.11145 16.3914 8.11145C16.9099 8.06259 17.4748 8.16032 17.9462 8.40295L18.229 7.04234C17.7576 6.84773 17.2391 6.75 16.7685 6.75C15.2137 6.75 14.0823 7.62534 14.0823 8.8402C14.0823 9.7644 14.8837 10.2497 15.4494 10.542C16.0614 10.8335 16.2971 11.0281 16.2499 11.3196C16.2499 11.7569 15.7785 11.9515 15.3079 11.9515C14.7422 11.9515 14.1766 11.8057 13.6588 11.5623L13.376 12.9237C13.9417 13.1663 14.5537 13.2641 15.1194 13.2641C16.8628 13.3121 17.9462 12.4376 17.9462 11.125C17.9462 9.47206 15.7314 9.37518 15.7314 8.64643ZM23.5531 13.2152L22.2811 6.89575H20.9149C20.632 6.89575 20.3492 7.09036 20.2549 7.38186L17.8995 13.2152H19.5486L19.8778 12.2918H21.904L22.0926 13.2152H23.5531ZM21.1503 8.59766L21.6209 10.9794H20.3018L21.1503 8.59766Z" fill="currentColor"/>
</svg>




