<svg viewBox="0 0 28 20" fill="none" xmlns="http://www.w3.org/2000/svg">
<rect x="0.5" y="0.5" width="27" height="19" rx="3.5" fill="white"/>
<rect x="0.5" y="0.5" width="27" height="19" rx="3.5" stroke="currentColor"/>
<path d="M17.7695 4.19165C20.8534 4.19165 23.3533 6.69122 23.3535 9.77466C23.3535 12.8582 20.8535 15.3586 17.7695 15.3586C16.3868 15.3586 15.1227 14.8541 14.1475 14.0217C13.1722 14.8541 11.9082 15.3586 10.5254 15.3586C7.44143 15.3586 4.94141 12.8582 4.94141 9.77466C4.94158 6.69126 7.44154 4.19171 10.5254 4.19165C11.9078 4.19165 13.1723 4.69466 14.1475 5.52661C15.1226 4.69461 16.3871 4.1917 17.7695 4.19165Z" fill="currentColor"/>
<path d="M17.7695 4.19165C20.8534 4.19165 23.3533 6.69122 23.3535 9.77466C23.3535 12.8582 20.8535 15.3586 17.7695 15.3586C16.3867 15.3586 15.1227 14.8541 14.1475 14.0217C15.3473 12.9977 16.1094 11.4756 16.1094 9.77466C16.1093 8.07343 15.3477 6.55063 14.1475 5.52661C15.1226 4.69462 16.3871 4.19166 17.7695 4.19165Z" fill="currentColor"/>
<path d="M14.1475 5.5271C15.3476 6.55118 16.1094 8.0739 16.1094 9.77515C16.1093 11.4762 15.3474 12.9982 14.1475 14.0222C12.9475 12.9982 12.1856 11.4762 12.1855 9.77515C12.1855 8.07393 12.9473 6.55118 14.1475 5.5271Z" fill="currentColor"/>
</svg>




