<svg viewBox="0 0 28 20" fill="none" xmlns="http://www.w3.org/2000/svg">
<rect x="0.5" y="0.5" width="27" height="19" rx="3.5" fill="white"/>
<rect x="0.5" y="0.5" width="27" height="19" rx="3.5" stroke="currentColor"/>
<path d="M21.998 11.7751H22.0117L23.1797 8.80933H24L21.4775 14.7546H20.6992L21.6367 12.6755L19.9814 8.80933H20.8018L21.998 11.7751ZM18.0488 8.67456C18.6068 8.67456 19.0475 8.8293 19.3711 9.13257C19.6946 9.43581 19.8544 9.85906 19.8545 10.3933V12.9402H19.1318V12.3669H19.0996C18.7855 12.8386 18.3729 13.0748 17.8525 13.075C17.4119 13.075 17.0366 12.9401 16.7412 12.6707C16.4505 12.4204 16.2856 12.0497 16.2949 11.6599C16.2949 11.2316 16.4546 10.8945 16.7686 10.6394C17.0827 10.3843 17.5051 10.2586 18.0303 10.2585C18.4804 10.2585 18.846 10.3458 19.1367 10.5095V10.3308C19.1367 10.0661 19.0241 9.81561 18.8271 9.64233C18.6256 9.45957 18.3677 9.35815 18.1006 9.35815C17.6786 9.35818 17.3454 9.5412 17.1016 9.90698L16.4355 9.47925C16.7919 8.94495 17.3315 8.67462 18.0488 8.67456ZM14.4707 6.90308C14.9537 6.89345 15.4233 7.08185 15.7656 7.42847C16.4499 8.08322 16.4919 9.18578 15.8496 9.89331L15.7656 9.97925C15.4139 10.321 14.9818 10.4949 14.4707 10.4949H13.2236V12.9402H12.4688V6.90308H14.4707ZM18.1484 10.8845C17.8436 10.8845 17.5853 10.9618 17.3789 11.1111C17.1775 11.2602 17.0744 11.4476 17.0742 11.6736C17.0742 11.8758 17.1685 12.0639 17.3232 12.1794C17.492 12.3141 17.6982 12.3864 17.9092 12.3816C18.228 12.3816 18.5327 12.2513 18.7578 12.0203C19.0063 11.7796 19.1328 11.4959 19.1328 11.1687C18.8984 10.9762 18.5704 10.8797 18.1484 10.8845ZM13.2236 9.75269H14.4902C14.7715 9.76227 15.0431 9.64704 15.2354 9.44019C15.6293 9.02136 15.6199 8.3475 15.2119 7.94312C15.0197 7.75072 14.7621 7.64432 14.4902 7.64429H13.2236V9.75269Z" fill="currentColor"/>
<path d="M10.6172 9.96506C10.6172 9.72917 10.5985 9.49328 10.561 9.26221H7.37695V10.5957H9.20107C9.12604 11.0242 8.8822 11.4093 8.52582 11.65V12.5165H9.61372C10.2515 11.9148 10.6172 11.0242 10.6172 9.96506Z" fill="currentColor"/>
<path d="M7.37749 13.354C8.2872 13.354 9.05624 13.0459 9.61426 12.5164L8.52636 11.6499C8.22155 11.8617 7.83235 11.982 7.37749 11.982C6.49591 11.982 5.75032 11.3706 5.48303 10.5522H4.3623V11.4477C4.93439 12.6175 6.10202 13.354 7.37749 13.354Z" fill="currentColor"/>
<path d="M5.48321 10.5523C5.34251 10.1238 5.34251 9.65687 5.48321 9.22361V8.33301H4.3623C3.87923 9.31026 3.87923 10.4656 4.3623 11.4429L5.48321 10.5523Z" fill="currentColor"/>
<path d="M7.37749 7.79385C7.86048 7.78422 8.32472 7.97197 8.67172 8.31377L9.63771 7.32207C9.02342 6.73475 8.21687 6.41221 7.37749 6.42184C6.10202 6.42184 4.93439 7.16321 4.3623 8.33302L5.48303 9.22844C5.75032 8.40523 6.49591 7.79385 7.37749 7.79385Z" fill="currentColor"/>
</svg>




