<svg viewBox="0 0 28 20" fill="none" xmlns="http://www.w3.org/2000/svg">
<rect x="0.5" y="0.5" width="27" height="19" rx="3.5" fill="white"/>
<rect x="0.5" y="0.5" width="27" height="19" rx="3.5" stroke="currentColor"/>
<path fill-rule="evenodd" clip-rule="evenodd" d="M7.78159 6.95255C7.54657 7.2458 7.17054 7.47709 6.7945 7.44405C6.7475 7.04755 6.9316 6.62626 7.14704 6.36605C7.38206 6.06455 7.79334 5.84977 8.12629 5.83325C8.16546 6.24628 8.01269 6.65104 7.78159 6.95255ZM8.12199 7.52252C7.79071 7.50242 7.48843 7.62757 7.24428 7.72867C7.08716 7.79372 6.9541 7.84881 6.85288 7.84881C6.73928 7.84881 6.60074 7.79078 6.44518 7.72561C6.24136 7.64023 6.00832 7.54262 5.76395 7.5473C5.20382 7.55556 4.68286 7.89011 4.39691 8.42292C3.80936 9.48852 4.24415 11.0663 4.81212 11.9336C5.09022 12.3632 5.42317 12.834 5.86188 12.8175C6.05488 12.8098 6.19371 12.7477 6.3374 12.6834C6.50281 12.6094 6.67465 12.5325 6.94297 12.5325C7.20198 12.5325 7.36631 12.6074 7.52405 12.6793C7.67404 12.7476 7.81807 12.8133 8.0319 12.8092C8.48627 12.801 8.77221 12.3797 9.05032 11.9501C9.35044 11.4891 9.48233 11.0392 9.50235 10.9709L9.50469 10.963C9.50421 10.9625 9.5005 10.9607 9.49396 10.9576C9.39363 10.9091 8.6268 10.539 8.61945 9.54634C8.61206 8.71318 9.22768 8.29105 9.32459 8.2246L9.3246 8.22459L9.32462 8.22458C9.3305 8.22054 9.33447 8.21782 9.33626 8.2164C8.94456 7.60513 8.33351 7.53904 8.12199 7.52252ZM11.2674 12.7638V6.32475H13.5588C14.7418 6.32475 15.5683 7.18384 15.5683 8.43944C15.5683 9.69503 14.7261 10.5624 13.5275 10.5624H12.2153V12.7638H11.2674ZM12.2148 7.16724H13.3077C14.1303 7.16724 14.6003 7.62982 14.6003 8.44348C14.6003 9.25714 14.1303 9.72386 13.3038 9.72386H12.2148V7.16724ZM18.6984 11.9914C18.4477 12.4953 17.8954 12.8133 17.3 12.8133C16.4187 12.8133 15.8037 12.2599 15.8037 11.4256C15.8037 10.5995 16.3991 10.1246 17.4998 10.0543L18.6827 9.97999V9.62479C18.6827 9.10025 18.3576 8.81526 17.7779 8.81526C17.3 8.81526 16.9514 9.07547 16.8809 9.47197H16.027C16.0544 8.63766 16.7986 8.03052 17.8053 8.03052C18.8903 8.03052 19.5954 8.6294 19.5954 9.55871V12.7638H18.718V11.9914H18.6984ZM17.5542 12.0493C17.0489 12.0493 16.7277 11.7932 16.7277 11.4008C16.7277 10.9961 17.0371 10.7606 17.6286 10.7235L18.6823 10.6533V11.0167C18.6823 11.6197 18.1965 12.0493 17.5542 12.0493ZM22.505 13.0158C22.1251 14.1433 21.6903 14.5151 20.7659 14.5151C20.6954 14.5151 20.4604 14.5068 20.4055 14.4903V13.7179C20.4643 13.7262 20.6092 13.7344 20.6836 13.7344C21.1027 13.7344 21.3378 13.5486 21.4827 13.0653L21.5689 12.7804L19.9629 8.09253H20.9539L22.0702 11.8965H22.0898L23.2062 8.09253H24.1698L22.505 13.0158Z" fill="black"/>
</svg>




