<svg viewBox="0 0 24 24" fill="none" xmlns="http://www.w3.org/2000/svg">
<path d="M12.0015 15.9993H12.0115M12.0015 7.99927V11.9993M15.3135 1.99927C15.8439 1.99938 16.3525 2.21017 16.7275 2.58527L21.4155 7.27327C21.7906 7.64825 22.0014 8.15688 22.0015 8.68727V15.3113C22.0014 15.8417 21.7906 16.3503 21.4155 16.7253L16.7275 21.4133C16.3525 21.7884 15.8439 21.9992 15.3135 21.9993H8.68946C8.15907 21.9992 7.65045 21.7884 7.27547 21.4133L2.58746 16.7253C2.21237 16.3503 2.00158 15.8417 2.00146 15.3113V8.68727C2.00158 8.15688 2.21237 7.64825 2.58746 7.27327L7.27547 2.58527C7.65045 2.21017 8.15907 1.99938 8.68946 1.99927H15.3135Z" stroke="currentColor" stroke-width="1.5" stroke-linecap="round" stroke-linejoin="round"/>
</svg>




