<svg viewBox="0 0 24 24" fill="none" xmlns="http://www.w3.org/2000/svg">
<path d="M21 21L17.5001 17.5M20 11.5C20 16.1944 16.1944 20 11.5 20C6.80558 20 3 16.1944 3 11.5C3 6.80558 6.80558 3 11.5 3" stroke="currentColor" stroke-width="1.5" stroke-linecap="round" stroke-linejoin="round"/>
<path d="M17.7002 1.2002L18.4847 2.76911C18.7501 3.30009 18.8829 3.56558 19.0602 3.79564C19.2176 3.99979 19.4006 4.18281 19.6047 4.34017C19.8348 4.51751 20.1003 4.65025 20.6313 4.91574L22.2002 5.7002L20.6313 6.48465C20.1003 6.75014 19.8348 6.88289 19.6047 7.06023C19.4006 7.21759 19.2176 7.4006 19.0602 7.60475C18.8829 7.83481 18.7501 8.1003 18.4847 8.63128L17.7002 10.2002L16.9157 8.63128C16.6502 8.1003 16.5175 7.83481 16.3402 7.60475C16.1828 7.4006 15.9998 7.21759 15.7956 7.06023C15.5656 6.88289 15.3001 6.75014 14.7691 6.48465L13.2002 5.7002L14.7691 4.91574C15.3001 4.65025 15.5656 4.51751 15.7956 4.34017C15.9998 4.18281 16.1828 3.99979 16.3402 3.79564C16.5175 3.56558 16.6502 3.30009 16.9157 2.76911L17.7002 1.2002Z" stroke="currentColor" stroke-width="1.5" stroke-linecap="round" stroke-linejoin="round"/>
</svg>




