<svg viewBox="0 0 20 20" fill="none" xmlns="http://www.w3.org/2000/svg">
<g clip-path="url(#clip0_40007077_5877)">
<path d="M13.3332 13.3332C13.3332 13.3332 12.0832 11.6665 9.99984 11.6665C7.9165 11.6665 6.6665 13.3332 6.6665 13.3332M12.4998 7.49984H12.5082M7.49984 7.49984H7.50817M18.3332 9.99984C18.3332 14.6022 14.6022 18.3332 9.99984 18.3332C5.39746 18.3332 1.6665 14.6022 1.6665 9.99984C1.6665 5.39746 5.39746 1.6665 9.99984 1.6665C14.6022 1.6665 18.3332 5.39746 18.3332 9.99984ZM12.9165 7.49984C12.9165 7.72996 12.73 7.9165 12.4998 7.9165C12.2697 7.9165 12.0832 7.72996 12.0832 7.49984C12.0832 7.26972 12.2697 7.08317 12.4998 7.08317C12.73 7.08317 12.9165 7.26972 12.9165 7.49984ZM7.9165 7.49984C7.9165 7.72996 7.72996 7.9165 7.49984 7.9165C7.26972 7.9165 7.08317 7.72996 7.08317 7.49984C7.08317 7.26972 7.26972 7.08317 7.49984 7.08317C7.72996 7.08317 7.9165 7.26972 7.9165 7.49984Z" stroke="currentColor" stroke-width="1.5" stroke-linecap="round" stroke-linejoin="round"/>
</g>
<defs>
<clipPath id="clip0_40007077_5877">
<rect width="20" height="20" fill="white"/>
</clipPath>
</defs>
</svg>




