<svg viewBox="0 0 24 24" fill="none" xmlns="http://www.w3.org/2000/svg">
<path d="M16.7619 16.2856C15.1048 17.9427 11.2867 16.5304 9.37812 14.6218C7.46955 12.7132 6.05716 8.89512 7.71431 7.23797C8.19431 6.75797 8.85526 6.70083 9.25907 6.71988C9.4924 6.73036 9.69431 6.8675 9.8305 7.05797L10.7372 8.32845C10.8681 8.51192 10.9297 8.73586 10.911 8.96046C10.8923 9.18506 10.7946 9.39577 10.6353 9.55512L9.77716 10.4132C9.93526 10.8894 10.4438 12.0323 11.2057 12.7942C11.9676 13.5561 13.1105 14.0646 13.5867 14.2227L14.4448 13.3656C14.604 13.2061 14.8147 13.1082 15.0393 13.0894C15.2639 13.0705 15.4879 13.132 15.6715 13.2627L16.9419 14.1694C17.1324 14.3056 17.2695 14.5075 17.28 14.7408C17.2991 15.1446 17.2419 15.8056 16.7619 16.2856Z" stroke="currentColor" stroke-width="1.5" stroke-linejoin="round"/>
<path d="M12 22C17.5229 22 22 17.5229 22 12C22 6.47714 17.5229 2 12 2C6.47714 2 2 6.47714 2 12C2 13.821 2.48667 15.5295 3.3381 17L2.5 21.5L7 20.6619C8.51948 21.5411 10.2445 22.0028 12 22Z" stroke="currentColor" stroke-width="1.5" stroke-linejoin="round"/>
</svg>




